<svg id="Layer_1" data-name="Layer 1" xmlns="http://www.w3.org/2000/svg" viewBox="0 0 74.62 119.35"><defs><style>.cls-1{fill:#292667;}</style></defs><title>rupee</title><path class="cls-1" d="M47.5,119.67a5.85,5.85,0,0,0,3.25-1.08A5.42,5.42,0,0,0,51.84,111L17.12,65.42h3.25A32.76,32.76,0,0,0,52.52,38.3H69.88a5.42,5.42,0,1,0,0-10.85H52.52a32.18,32.18,0,0,0-7.87-16.27H69.88a5.42,5.42,0,1,0,0-10.85H6.13a5.42,5.42,0,1,0,0,10.85H20.37a21.81,21.81,0,0,1,21,16.27H6.13a5.42,5.42,0,1,0,0,10.85H41.39a21.69,21.69,0,0,1-21,16.27H6.13a5.66,5.66,0,0,0-4.88,3,5.4,5.4,0,0,0,.54,5.7L43.16,117.5A5.66,5.66,0,0,0,47.5,119.67Z" transform="translate(-0.68 -0.32)"/></svg>
